<svg viewBox="0 0 512 512" xmlns="http://www.w3.org/2000/svg"><g id="Online_coupon"><path d="M457.1787,213.1a14.1091,14.1091,0,0,0,10.22-13.6V164.18a34.0227,34.0227,0,0,0-33.99-33.98H381.291V64.0039A32.6951,32.6951,0,0,0,348.5959,31.309H152.3689a32.6951,32.6951,0,0,0-32.6951,32.6949V456.5685a32.6951,32.6951,0,0,0,32.6951,32.6949h196.227a32.6951,32.6951,0,0,0,32.6951-32.6949V326.01h52.1177a34.0313,34.0313,0,0,0,33.99-33.99V256.7a14.1449,14.1449,0,0,0-10.22-13.6,15.5832,15.5832,0,0,1,0-30ZM273.3635,469.0513H227.6013v-12h45.7622Zm92.6878-40.2962a10,10,0,0,1-10,10H144.9136a10,10,0,0,1-10-10V91.8173a10,10,0,0,1,10-10H356.0513a10,10,0,0,1,10,10V130.2H192.2788a34.0142,34.0142,0,0,0-33.98,33.98V199.5a14.1031,14.1031,0,0,0,10.2,13.6,15.5843,15.5843,0,0,1-.01,30.01,14.1209,14.1209,0,0,0-10.19,13.59v35.32a34.0227,34.0227,0,0,0,33.98,33.99H366.0513ZM453.9387,254.66a2.0843,2.0843,0,0,1,1.46,2.04v35.32a22.0153,22.0153,0,0,1-21.99,21.99h-38.19V286.68h-12v27.33h-190.94a22.0067,22.0067,0,0,1-21.98-21.99V256.7a2.1085,2.1085,0,0,1,1.43-2.04,27.5852,27.5852,0,0,0,.01-53.12,2.0919,2.0919,0,0,1-1.44-2.04V164.18a22.0046,22.0046,0,0,1,21.98-21.98h190.94v27.33h12V142.2h38.19a22.0131,22.0131,0,0,1,21.99,21.98V199.5a2.1,2.1,0,0,1-1.45,2.04,27.5888,27.5888,0,0,0-.01,53.12Z"/><rect height="33.3306" width="12" x="383.2158" y="186.3597"/><rect height="33.3306" width="12" x="383.2158" y="236.5189"/><path d="M282.19,163.8721a64.2329,64.2329,0,1,0,64.2329,64.2329A64.3053,64.3053,0,0,0,282.19,163.8721Zm-19.35,37.2324a8.4383,8.4383,0,1,1-8.4385,8.4383A8.4385,8.4385,0,0,1,262.8408,201.1045Zm39.1338,54.1844a8.4383,8.4383,0,1,1,8.438-8.4383A8.4385,8.4385,0,0,1,301.9746,255.2889ZM262.4,254.6671l-7.9974-8.2288,49.6829-48.2867,7.9973,8.2287Z"/><path d="M166.4629,362.2949v25.2509a15.8061,15.8061,0,0,0,15.7886,15.7881H320.0493a15.8061,15.8061,0,0,0,15.7886-15.7881V362.2949a15.8062,15.8062,0,0,0-15.7886-15.7886H182.2515A15.8062,15.8062,0,0,0,166.4629,362.2949Zm157.375,0v25.2509a3.7926,3.7926,0,0,1-3.7886,3.7881H182.2515a3.7926,3.7926,0,0,1-3.7886-3.7881V362.2949a3.7931,3.7931,0,0,1,3.7886-3.7886H320.0493A3.7931,3.7931,0,0,1,323.8379,362.2949Z"/><path d="M201.6619,383.1791a8.2589,8.2589,0,1,0-8.2591-8.2589A8.2588,8.2588,0,0,0,201.6619,383.1791Z"/><path d="M234.6543,383.1791a8.2589,8.2589,0,1,0-8.259-8.2589A8.2588,8.2588,0,0,0,234.6543,383.1791Z"/><circle cx="267.6467" cy="374.9202" r="8.259"/><path d="M300.6392,383.1791A8.2589,8.2589,0,1,0,292.38,374.92,8.2588,8.2588,0,0,0,300.6392,383.1791Z"/></g></svg>